<?xml version="1.0" encoding="iso-8859-1"?>
<!-- Uploaded to: SVG Repo, www.svgrepo.com, Generator: SVG Repo Mixer Tools -->
<!DOCTYPE svg PUBLIC "-//W3C//DTD SVG 1.1//EN" "http://www.w3.org/Graphics/SVG/1.1/DTD/svg11.dtd">
<svg fill="#000000" height="800px" width="800px" version="1.1" id="Capa_1" xmlns="http://www.w3.org/2000/svg" xmlns:xlink="http://www.w3.org/1999/xlink" 
	 viewBox="0 0 379.999 379.999" xml:space="preserve">
<g>
	<path d="M303.837,353.359V88.866h7.697V46.119H68.464v42.747h7.697v264.493H61.758v26.64h256.482v-26.64H303.837z M169.787,102.806
		h40.426v40.424h-40.426V102.806z M169.787,170.352h40.426v40.423h-40.426V170.352z M104.738,102.806h40.424v40.424h-40.424V102.806
		z M104.738,170.352h40.424v40.423h-40.424V170.352z M229.248,274.977v78.383h-78.496v-78.383H140c0-27.614,22.386-50,50-50
		c27.614,0,50,22.386,50,50H229.248z M275.261,210.774h-40.424v-40.423h40.424V210.774z M275.261,143.23h-40.424v-40.424h40.424
		V143.23z"/>
	<path d="M144.448,40h91.104c11.045,0,19.999-8.955,19.999-20c0-11.047-8.954-20-19.999-20h-91.104
		c-11.045,0-19.999,8.953-19.999,20C124.449,31.045,133.403,40,144.448,40z M221.817,9.246h4.775v17.041h8.363v3.994h-13.139V9.246z
		 M205.151,9.246h12.983v3.902h-8.208v4.369h7.74v3.869h-7.74v4.994h8.645v3.9h-13.42V9.246z M186.458,9.246h16.166v3.994h-5.742
		v17.041h-4.775V13.24h-5.648V9.246z M175.815,8.902c6.461,0,9.987,4.838,9.987,10.643c0,6.898-4.183,11.08-10.33,11.08
		c-6.242,0-9.894-4.713-9.894-10.705C165.579,13.615,169.604,8.902,175.815,8.902z M145.043,9.246h4.775v8.084h7.834V9.246h4.743
		v21.035h-4.743V21.48h-7.834v8.801h-4.775V9.246z"/>
	<path d="M175.721,26.848c3.215,0,5.057-3.059,5.057-7.146c0-3.775-1.811-7.022-5.088-7.022c-3.214,0-5.087,3.059-5.087,7.147
		C170.603,23.945,172.539,26.848,175.721,26.848z"/>
</g>
</svg>